<svg width="980" height="146" viewBox="0 0 980 146" fill="none" xmlns="http://www.w3.org/2000/svg">
<path d="M98.99 141.87C83.0567 142.93 67.1233 143.99 51.19 145.05C34.1167 97.6633 17.0533 49.3133 0 0C14.72 0.673333 29.45 1.39333 44.19 2.16C55.1233 36.4867 66.0533 70.5933 76.98 104.48C87.3867 70.8267 97.79 37.8433 108.19 5.53C124.19 6.36333 140.19 7.19667 156.19 8.03C166.65 39.3767 177.12 70.38 187.6 101.04C198.46 70.6133 209.327 40.72 220.2 11.36C233.733 12.06 247.267 12.76 260.8 13.46C244.333 52.8733 227.863 93.2067 211.39 134.46C194.997 135.54 178.597 136.62 162.19 137.7C151.65 107.88 141.117 77.4533 130.59 46.42C120.057 77.9933 109.523 109.81 98.99 141.87ZM352.63 16.49C355.563 16.65 358.497 16.8067 361.43 16.96C431.03 20.73 450.82 48.48 450.82 69.22C450.82 70.5 450.823 71.7767 450.83 73.05C450.83 93.39 431.03 121.65 361.43 126.36C358.49 126.553 355.557 126.75 352.63 126.95C283.02 131.63 263.23 99.74 263.23 74.46C263.223 72.8733 263.223 71.29 263.23 69.71C263.23 44.1 283.02 12.76 352.63 16.49ZM408.02 70.35C408.03 58.02 399.02 42.51 357.03 41.27C315.43 40.06 306.02 56.88 306.02 70.77C306.02 71.4767 306.02 72.18 306.02 72.88C306.02 86.46 316.02 103.85 357.02 102.15C398.82 100.42 408.02 84.25 408.03 72.22C408.023 71.6 408.02 70.9767 408.02 70.35ZM512.16 45.09C512.16 51.7433 512.16 58.3967 512.16 65.05C531.3 64.9967 550.437 64.9367 569.57 64.87C586.37 64.81 590.97 59.86 590.97 53.95C590.97 53.8567 590.97 53.7633 590.97 53.67C590.97 47.88 586.37 43.18 569.57 43.66C550.437 44.1867 531.3 44.6633 512.16 45.09ZM602.77 73.66C622.97 77.09 635.16 86.04 635.16 101.79C635.16 105.503 635.16 109.217 635.16 112.93C635.16 121.07 636.37 123.32 637.57 125.14C637.57 125.387 637.567 125.63 637.56 125.87C623.367 124.937 609.17 124.003 594.97 123.07C594.37 122.33 593.57 120.33 593.57 115.73C593.57 112.903 593.57 110.087 593.57 107.28C593.57 94.05 586.56 87.83 565.77 87.32C547.903 86.9267 530.037 86.5867 512.17 86.3C512.163 96.7733 512.16 107.24 512.16 117.7C498.433 117.12 484.703 117.06 470.97 117.52C470.97 86.74 470.97 55.7 470.97 24.4C504.37 24.0067 537.767 22.9367 571.16 21.19C627.77 18.21 634.17 35.12 634.16 46.89C634.16 47.37 634.163 47.8533 634.17 48.34C634.16 61.79 621.36 70.82 602.77 73.66ZM657.26 16.68C670.987 15.96 684.72 15.2467 698.46 14.54C698.453 43.9867 698.45 73.41 698.45 102.81C728.783 103.99 759.12 105.173 789.46 106.36C789.453 116.213 789.453 126.037 789.46 135.83C745.393 132.943 701.327 130.057 657.26 127.17C657.26 90.41 657.26 53.58 657.26 16.68ZM807.6 137.02C807.6 94.34 807.6 51.6267 807.6 8.88C833.007 7.55333 858.41 6.22667 883.81 4.9C961.41 0.829999 979.21 38.8 979.21 68.94C979.21 70.9333 979.21 72.93 979.21 74.93C979.2 106.07 965.61 147.45 884.01 142.07C858.543 140.383 833.073 138.7 807.6 137.02ZM848.81 36.03C848.81 60.7967 848.81 85.56 848.81 110.32C859.877 110.78 870.943 111.24 882.01 111.7C932 113.74 936.4 90.22 936.41 73.85C936.41 73.4633 936.407 73.0733 936.4 72.68C936.4 56.5 931.61 33.72 882.01 35.09C870.943 35.4033 859.877 35.7167 848.81 36.03Z" fill="#262262"/>
</svg>
